<svg width="76" height="84" viewBox="0 0 76 84" fill="none" xmlns="http://www.w3.org/2000/svg">
<rect width="76" height="83.6" fill="black"/>
<path d="M17.15 29.14C17.15 30 17.37 30.79 17.81 31.51C18.27 32.21 18.87 32.78 19.61 33.22C20.35 33.64 21.18 33.85 22.1 33.85C23.06 33.85 23.92 33.64 24.68 33.22C25.44 32.78 26.04 32.21 26.48 31.51C26.92 30.79 27.14 30 27.14 29.14V15.16H30.59V29.23C30.59 30.81 30.21 32.21 29.45 33.43C28.69 34.63 27.67 35.57 26.39 36.25C25.11 36.91 23.68 37.24 22.1 37.24C20.54 37.24 19.12 36.91 17.84 36.25C16.56 35.57 15.54 34.63 14.78 33.43C14.04 32.21 13.67 30.81 13.67 29.23V15.16H17.15V29.14ZM57.8363 37.78L41.0663 21.52L42.0863 21.94L42.1763 37H38.6363V14.41H38.7863L55.3163 30.67L54.5063 30.43L54.4463 15.16H57.9263V37.78H57.8363ZM30.2 69.29C29.9 69.51 29.43 69.78 28.79 70.1C28.15 70.42 27.39 70.7 26.51 70.94C25.65 71.16 24.69 71.26 23.63 71.24C21.93 71.22 20.4 70.92 19.04 70.34C17.68 69.74 16.53 68.94 15.59 67.94C14.65 66.92 13.92 65.76 13.4 64.46C12.9 63.14 12.65 61.74 12.65 60.26C12.65 58.6 12.91 57.08 13.43 55.7C13.95 54.32 14.69 53.13 15.65 52.13C16.61 51.11 17.75 50.32 19.07 49.76C20.39 49.2 21.83 48.92 23.39 48.92C24.77 48.92 26 49.11 27.08 49.49C28.18 49.85 29.1 50.26 29.84 50.72L28.46 54.02C27.9 53.62 27.2 53.23 26.36 52.85C25.52 52.47 24.57 52.28 23.51 52.28C22.55 52.28 21.63 52.48 20.75 52.88C19.87 53.26 19.1 53.81 18.44 54.53C17.78 55.23 17.25 56.05 16.85 56.99C16.47 57.93 16.28 58.95 16.28 60.05C16.28 61.19 16.45 62.24 16.79 63.2C17.15 64.14 17.65 64.96 18.29 65.66C18.95 66.36 19.73 66.91 20.63 67.31C21.55 67.69 22.57 67.88 23.69 67.88C24.83 67.88 25.82 67.71 26.66 67.37C27.52 67.01 28.21 66.61 28.73 66.17L30.2 69.29ZM37.2594 49.16H40.7694V67.64H51.5394V71H37.2594V49.16Z" fill="white"/>
</svg>
